<mxfile host="app.diagrams.net" agent="Mozilla/5.0 (Windows NT 10.0; Win64; x64) AppleWebKit/537.36 (KHTML, like Gecko) Chrome/134.0.0.0 Safari/537.36" version="26.1.1">
  <diagram name="Page-1" id="MIkv1Ov7sTaoSRSfVZsq">
    <mxGraphModel dx="1674" dy="738" grid="1" gridSize="10" guides="1" tooltips="1" connect="1" arrows="1" fold="1" page="1" pageScale="1" pageWidth="850" pageHeight="1100" math="0" shadow="0">
      <root>
        <mxCell id="0" />
        <mxCell id="1" parent="0" />
        <mxCell id="AwpaZWjnoMy4yh5a1kLy-2" value="Работа с данными" style="rounded=1;whiteSpace=wrap;html=1;" parent="1" vertex="1">
          <mxGeometry x="40" y="40" width="120" height="60" as="geometry" />
        </mxCell>
        <mxCell id="AwpaZWjnoMy4yh5a1kLy-3" value="" style="endArrow=none;html=1;rounded=0;entryX=0.5;entryY=1;entryDx=0;entryDy=0;" parent="1" target="AwpaZWjnoMy4yh5a1kLy-2" edge="1">
          <mxGeometry width="50" height="50" relative="1" as="geometry">
            <mxPoint x="100" y="420" as="sourcePoint" />
            <mxPoint x="290" y="210" as="targetPoint" />
          </mxGeometry>
        </mxCell>
        <mxCell id="AwpaZWjnoMy4yh5a1kLy-4" value="" style="endArrow=classic;html=1;rounded=0;" parent="1" edge="1">
          <mxGeometry width="50" height="50" relative="1" as="geometry">
            <mxPoint x="100" y="130" as="sourcePoint" />
            <mxPoint x="170" y="130" as="targetPoint" />
          </mxGeometry>
        </mxCell>
        <mxCell id="AwpaZWjnoMy4yh5a1kLy-5" value="Просмотр" style="rounded=1;whiteSpace=wrap;html=1;" parent="1" vertex="1">
          <mxGeometry x="170" y="115" width="120" height="30" as="geometry" />
        </mxCell>
        <mxCell id="AwpaZWjnoMy4yh5a1kLy-12" value="" style="endArrow=classic;html=1;rounded=0;" parent="1" edge="1">
          <mxGeometry width="50" height="50" relative="1" as="geometry">
            <mxPoint x="100" y="175" as="sourcePoint" />
            <mxPoint x="170" y="175" as="targetPoint" />
          </mxGeometry>
        </mxCell>
        <mxCell id="AwpaZWjnoMy4yh5a1kLy-13" value="Добавление" style="rounded=1;whiteSpace=wrap;html=1;" parent="1" vertex="1">
          <mxGeometry x="170" y="160" width="120" height="30" as="geometry" />
        </mxCell>
        <mxCell id="AwpaZWjnoMy4yh5a1kLy-14" value="" style="endArrow=classic;html=1;rounded=0;" parent="1" edge="1">
          <mxGeometry width="50" height="50" relative="1" as="geometry">
            <mxPoint x="100" y="225" as="sourcePoint" />
            <mxPoint x="170" y="225" as="targetPoint" />
          </mxGeometry>
        </mxCell>
        <mxCell id="AwpaZWjnoMy4yh5a1kLy-15" value="Удаление" style="rounded=1;whiteSpace=wrap;html=1;" parent="1" vertex="1">
          <mxGeometry x="170" y="210" width="120" height="30" as="geometry" />
        </mxCell>
        <mxCell id="AwpaZWjnoMy4yh5a1kLy-16" value="" style="endArrow=classic;html=1;rounded=0;" parent="1" edge="1">
          <mxGeometry width="50" height="50" relative="1" as="geometry">
            <mxPoint x="100" y="275" as="sourcePoint" />
            <mxPoint x="170" y="275" as="targetPoint" />
          </mxGeometry>
        </mxCell>
        <mxCell id="AwpaZWjnoMy4yh5a1kLy-17" value="Редактирование" style="rounded=1;whiteSpace=wrap;html=1;" parent="1" vertex="1">
          <mxGeometry x="170" y="260" width="120" height="30" as="geometry" />
        </mxCell>
        <mxCell id="AwpaZWjnoMy4yh5a1kLy-18" value="" style="endArrow=classic;html=1;rounded=0;" parent="1" edge="1">
          <mxGeometry width="50" height="50" relative="1" as="geometry">
            <mxPoint x="100" y="325" as="sourcePoint" />
            <mxPoint x="170" y="325" as="targetPoint" />
          </mxGeometry>
        </mxCell>
        <mxCell id="AwpaZWjnoMy4yh5a1kLy-19" value="Поиск" style="rounded=1;whiteSpace=wrap;html=1;" parent="1" vertex="1">
          <mxGeometry x="170" y="310" width="120" height="30" as="geometry" />
        </mxCell>
        <mxCell id="AwpaZWjnoMy4yh5a1kLy-20" value="" style="endArrow=classic;html=1;rounded=0;" parent="1" edge="1">
          <mxGeometry width="50" height="50" relative="1" as="geometry">
            <mxPoint x="100" y="375" as="sourcePoint" />
            <mxPoint x="170" y="375" as="targetPoint" />
          </mxGeometry>
        </mxCell>
        <mxCell id="AwpaZWjnoMy4yh5a1kLy-21" value="Сортировка" style="rounded=1;whiteSpace=wrap;html=1;" parent="1" vertex="1">
          <mxGeometry x="170" y="360" width="120" height="30" as="geometry" />
        </mxCell>
        <mxCell id="AwpaZWjnoMy4yh5a1kLy-22" value="" style="endArrow=classic;html=1;rounded=0;" parent="1" edge="1">
          <mxGeometry width="50" height="50" relative="1" as="geometry">
            <mxPoint x="100" y="421" as="sourcePoint" />
            <mxPoint x="170" y="421" as="targetPoint" />
          </mxGeometry>
        </mxCell>
        <mxCell id="AwpaZWjnoMy4yh5a1kLy-23" value="Индивидуальное задание" style="rounded=1;whiteSpace=wrap;html=1;" parent="1" vertex="1">
          <mxGeometry x="170" y="406" width="120" height="30" as="geometry" />
        </mxCell>
      </root>
    </mxGraphModel>
  </diagram>
</mxfile>
